<svg xmlns="http://www.w3.org/2000/svg" width="55.068" height="54.948" viewBox="0 0 55.068 54.948">
  <defs>
    <linearGradient id="linearGradient-2" x1="-.551" x2="47.909" y1="-3.846" y2="49.453" gradientUnits="userSpaceOnUse">
      <stop offset="0" stop-color="rgb(255,255,255)"/>
      <stop offset="1" stop-color="rgb(0,0,0)"/>
    </linearGradient>
  </defs>
  <path fill="url(#linearGradient-2)" fill-rule="evenodd" d="M40.35253906 27.3229599l12.08081055 12.08086777c3.51245117 3.51236725 3.51245117 9.21555328 0 12.72792053-3.5123291 3.51236725-9.2154541 3.51236725-12.72790527 0L27.62463379 40.05087662l-12.26245117 12.2624054c-3.51245117 3.51236724-9.21557617 3.51236724-12.72790528 0-3.51245117-3.51236726-3.51245117-9.2155533 0-12.72792054L14.89672852 27.3229599 2.93591309 15.36219406c-3.5123291-3.51236343-3.5123291-9.21555328 0-12.72792053 3.5123291-3.51236343 9.21557617-3.51236343 12.72790527 0l11.96081543 11.96076965 11.7791748-11.77923584c3.5123291-3.51236343 9.21557618-3.51236343 12.72790528 0 3.5123291 3.51236725 3.5123291 9.2155571 0 12.72792053L40.35253907 27.3229599z"/>
</svg>
