<svg xmlns="http://www.w3.org/2000/svg" xmlns:xlink="http://www.w3.org/1999/xlink" width="52" height="52" viewBox="0 0 52 52">
  <defs>
    <rect id="rect-1" width="52" height="52" x="0" y="0"/>
    <mask id="mask-2" maskContentUnits="userSpaceOnUse" maskUnits="userSpaceOnUse">
      <rect width="52" height="52" x="0" y="0" fill="black"/>
      <use fill="white" xlink:href="#rect-1"/>
    </mask>
  </defs>
  <g>
    <use fill="none" xlink:href="#rect-1"/>
    <g mask="url(#mask-2)">
      <path fill="rgb(255,255,255)" fill-rule="evenodd" d="M46.921875 1.015625H5.078125c-2.24353027 0-4.0625 1.81900024-4.0625 4.0625v41.84375c0 2.24349976 1.81896973 4.0625 4.0625 4.0625h41.84375c2.24353027 0 4.0625-1.81900024 4.0625-4.0625V5.078125c0-2.24349976-1.81896973-4.0625-4.0625-4.0625z"/>
      <path fill="rgb(0,0,0)" fill-rule="evenodd" d="M26 11.78125c8.97518883 0 16.25 7.27481117 16.25 16.25 0 7.3795475-4.9186404 13.61056531-11.6574707 15.59182727-.33285485-.3614193-.52685547-.84304797-.5300293-1.37307727v-4.04425023c.00317383-1.85946618-.7331543-2.35022024-1.27072156-3.1706543 8.49197375-1.26754774 8.75897242-9.07556203 5.79342664-12.58779945-.04602-.05276477-.08727977-.15313696-.0682368-.21026586.45504774-1.37506078.3963314-4.40368602-.64468422-4.3560786-1.42623914.06625328-2.56365992.8696289-3.88714625 1.65673828-.10037218.05871633-.1805111.08212243-.29754664.05078125C28.4708247 19.25839297 27.2409668 19.0794683 26 19.06439234c-1.2409668.01507594-2.47082469.19400063-3.68759117.52407875-.11703453.03134118-.19717445.00793508-.29754664-.05078125-1.32348633-.78710937-2.46090711-1.590485-3.88714625-1.65673828-1.04101563-.04760742-1.09973094 2.98101782-.64468422 4.35607961.01904297.0571289-.0222168.1575011-.0682368.21026586-2.96554578 3.51223742-2.6985471 11.32025172 5.79342664 12.58779945-.53756726.82043407-1.27389539 1.31118813-1.27072156 3.1706543v4.04425024c-.00317383.5300293-.19717445 1.01165796-.5300293 1.37307726C14.6686404 41.64181633 9.75 35.4107975 9.75 28.03125102c0-8.97518883 7.27481117-16.25 16.25-16.25V11.78125z"/>
      <path fill="rgb(255,255,255)" fill-rule="evenodd" d="M39.203125 5.3828125c0 .56097412-.45465088 1.015625-1.015625 1.015625s-1.015625-.45465088-1.015625-1.015625.45465088-1.015625 1.015625-1.015625 1.015625.45465088 1.015625 1.015625z"/>
      <path fill="rgb(255,255,255)" fill-rule="evenodd" d="M8.734375 28.03125c0-9.52029419 7.74536133-17.265625 17.265625-17.265625s17.265625 7.74533081 17.265625 17.265625c0 9.59884644-7.78735352 17.265625-17.265625 17.265625-9.4576416 0-17.265625-7.6532898-17.265625-17.265625zm22.3548584 14.36276245c-.00634766-.0472107-.01074219-.09481811-.0111084-.14401245v-4.04266357c.00195313-1.16558838-.25427246-1.92373658-.57165527-2.49224854 3.08215332-.83312988 5.27880859-2.67196655 6.26312256-5.28204346 1.03985595-2.75686645.56811523-6.05249023-1.16278077-8.33407592.31536866-1.38815308.30627442-3.58047486-.44952392-4.57745362-.3380127-.44631958-.81011963-.6776123-1.33221436-.65499878-1.58813476.07339478-2.81201172.86605835-4.14501953 1.66983033-1.2199707-.30865479-2.45214844-.47250367-3.6677246-.48757935-.00836182-.00039673-.0162964-.00039673-.02465821 0-1.21594238.01467895-2.44897461.17892456-3.66772461.48757935-1.32269287-.79742432-2.5501709-1.59603882-4.14538574-1.66983033-.5197754-.0238037-.9934082.2086792-1.33184815.65499878-.75457763.99539185-.76489258 3.18255615-.44909668 4.57666016-1.730896 2.2815857-2.20306396 5.57800293-1.163208 8.33486938.98431396 2.6100769 3.18096923 4.44891358 6.26312255 5.28164673-.25073242.44909668-.46252441 1.01721192-.53991699 1.80947876-1.25604248.43917847-2.27282715.14956665-2.96313476-1.01364136-.80737305-1.3580017-2.17529297-2.45336914-3.74316407-2.31808471-.55895996.04840088-.97277832.54074096-.92437744 1.09933471.04803467.55899048.54193115.97357178 1.0993042.92477417.72607422-.06307983 1.44213867.69308472 1.82177734 1.3314209 1.08544922 1.82931519 2.84375 2.48233033 4.67785645 2.08996582v2.60610962c-.00036621.05117798-.00476074.10076905-.0114746.14956665C14.89794921 40.2604065 10.765625 34.46975708 10.765625 28.03125c0-8.40032959 6.83404541-15.234375 15.234375-15.234375s15.234375 6.83404541 15.234375 15.234375c0 6.43850708-4.13232422 12.2291565-10.1451416 14.36276245zM22.953125 42.25c-.0012207.2364502-.02893066.46853638-.0805664.69268799 1.02319335.21343994 2.07055663.32293701 3.1274414.32293701s2.10388184-.10949707 3.12701416-.32293701c-.0512085-.2225647-.07855225-.45306397-.07977295-.6871338v-4.04980468c.0018921-1.14309692-.3046875-1.5422058-.71496582-2.07635498-.1225586-.15951538-.2543335-.33106995-.38989258-.53808594-.18963623-.28961181-.21862793-.65579223-.07696533-.97198486.1416626-.3157959.4343872-.53796387.77679443-.58914185 4.0288086-.6010437 5.61010743-2.67791748 6.22705079-4.31402587.8223877-2.17962647.38720703-4.89801026-1.05810547-6.61108399-.21972657-.25827026-.4161377-.72283935-.25549317-1.19534302.305542-.92358398.25750733-2.41052246.06549073-2.98538208-.87518311.12774659-1.69281006.62405396-2.62475586 1.1893921-.0522461.03175353-.10327149.063385-.15332032.09443664-.45593261.28292847-.83520507.51826477-1.41931152.36061096C28.28234863 20.25933838 27.13110352 20.09469604 26 20.0800171c-1.13067627.01507568-2.28198242.17932129-3.42175293.4883728-.58721924.15785218-.95629883-.07138061-1.41766357-.35784912-.0510254-.03172302-.10321045-.06413269-.15698243-.09680176-.93151855-.56533813-1.74920654-1.06124878-2.6243286-1.18939209-.19201661.57525635-.24005128 2.06259156.0682373 2.99371338.15783691.4645691-.03894043.92874146-.258667 1.18701172-1.44494629 1.71347046-1.88012695 4.43145752-1.05810547 6.61108399.61730958 1.6361084 2.19866944 3.71298217 6.227417 4.3144226.34240722.05078125.63519287.27294922.77685547.58874512.14123535.31619263.11224365.68237305-.07739258.97198486-.13580323.20741272-.26763916.37927246-.39019776.53897095-.41046142.53494263-.71612548.93338013-.71429443 2.07388306V42.25z"/>
      <path fill="rgb(255,255,255)" fill-rule="evenodd" d="M46.921875 0H5.078125C2.27801514 0 0 2.27801514 0 5.078125v41.84375C0 49.72198486 2.27801514 52 5.078125 52h41.84375C49.72198486 52 52 49.72198486 52 46.921875V5.078125C52 2.27801514 49.72198486 0 46.921875 0zm3.046875 46.921875c0 1.68014526-1.36669922 3.046875-3.046875 3.046875H5.078125c-1.68017578 0-3.046875-1.36672974-3.046875-3.046875V5.078125c0-1.68014526 1.36669922-3.046875 3.046875-3.046875h41.84375c1.68017578 0 3.046875 1.36672974 3.046875 3.046875v41.84375z"/>
      <path fill="rgb(255,255,255)" fill-rule="evenodd" d="M13.8125 6.3984375H34.125c.56097412 0 1.015625-.45465088 1.015625-1.015625s-.45465088-1.015625-1.015625-1.015625H13.8125c-.56097412 0-1.015625.45465088-1.015625 1.015625s.45465088 1.015625 1.015625 1.015625z"/>
    </g>
  </g>
</svg>
