<svg xmlns="http://www.w3.org/2000/svg" width="254" height="256" viewBox="0 0 254 256">
  <g>
    <path fill="rgb(255,51,102)" fill-rule="evenodd" d="M185.10152864 4.4785586c2.66795731-3.95146162 8.38793278-4.47805735 11.64827157-1.0014258 14.18778467 15.1314345 16.37951135 39.70924624 4.04759693 57.380586l-96.26795507 144.33320925c-.78483581 28.1758982-23.6711266 50.80861627-51.94350457 50.80861627C23.81746578 255.99954432 0 232.6013383 0 203.73805637c0-28.86325156 23.81795025-52.26145757 52.5859375-52.26145757 10.81435323 0 20.85428667 3.3128816 29.17972326 8.97254968L185.10152864 4.4785586zM29.765625 203.73854243c0 12.37002137 10.49088097 22.39776753 22.8203125 22.39776753s22.32421875-10.02774616 22.32421875-22.39776753c0-12.37005175-9.99478722-22.39776753-22.32421875-22.39776753S29.765625 191.36849068 29.765625 203.73854243z"/>
    <path fill="rgb(255,51,102)" fill-rule="evenodd" d="M172.23430896 160.44963455c8.32543659-5.65966809 18.36540031-8.97254969 29.17975354-8.97254969 28.76847172 0 52.5859375 23.39869207 52.5859375 52.26145757S230.18253422 256 201.4140625 256c-28.2718935 0-51.15869904-22.63317375-51.94401932-50.80858589l-13.51655626-20.26498532 26.30486846-39.43850174 9.97595358 14.9617075zm6.85553479 43.28890788c0 12.37002137 9.99478722 22.39776753 22.32421875 22.39776753s22.32421875-10.02774616 22.32421875-22.39776753c0-12.37005175-9.99478722-22.39776753-22.32421875-22.39776753s-22.32421875 10.02771578-22.32421875 22.39776753z"/>
    <path fill="rgb(255,51,102)" fill-rule="evenodd" d="M68.89849219 4.47855805C66.23099609.52709413 60.51053906 0 57.25070703 3.47712898c-14.18778516 15.13143401-16.38002344 39.70925091-4.0476289 57.3810895l38.53507421 57.77628566L118.0465 79.18158323 68.89849219 4.47855805z"/>
  </g>
</svg>
