<?xml version="1.0" encoding="UTF-8"?>
<svg version="1.1" xmlns="http://www.w3.org/2000/svg" width="256" height="256">
<path d="M0 0 C21.65276928 18.19606921 35.61859245 40.69453774 38.55004883 69.18359375 C40.32888222 90.09540847 35.81470365 112.19380553 23.9375 129.75 C23.298125 130.8225 22.65875 131.895 22 133 C22.96700512 135.75419258 23.58475202 136.75573648 26.125 138.25 C26.74375 138.4975 27.3625 138.745 28 139 C28.721875 138.319375 29.44375 137.63875 30.1875 136.9375 C33 135 33 135 35.40429688 135.13977051 C38.53115175 136.17602645 40.01362587 137.50634764 42.34375 139.82617188 C43.16810547 140.6379187 43.99246094 141.44966553 44.84179688 142.28601074 C45.71900391 143.1713147 46.59621094 144.05661865 47.5 144.96875 C48.41330078 145.87822388 49.32660156 146.78769775 50.26757812 147.72473145 C52.20058603 149.6518468 54.12619004 151.58599549 56.046875 153.52539062 C58.49103809 155.99221483 60.95254841 158.44081106 63.42004395 160.88426971 C65.78985726 163.23600224 68.14415036 165.6030289 70.5 167.96875 C71.37720703 168.83786011 72.25441406 169.70697021 73.15820312 170.60241699 C80.45144848 178.00721365 85.437667 184.68967106 86.25 195.25 C85.71458825 203.28117632 82.83662354 210.34807974 77 216 C70.0165954 220.93738957 62.0682355 223.03101089 53.5859375 221.58984375 C43.79035341 218.77908337 36.73610657 211.05274095 29.72265625 204.05859375 C28.87070175 203.21329605 28.01874725 202.36799835 27.14097595 201.49708557 C25.35430987 199.72048949 23.57029508 197.94122348 21.78881836 196.15942383 C19.05680647 193.43181565 16.30915782 190.72063371 13.56054688 188.00976562 C11.82193962 186.27702147 10.08427561 184.54333024 8.34765625 182.80859375 C7.52483658 182.00014511 6.70201691 181.19169647 5.85426331 180.35874939 C5.09935104 179.59768387 4.34443878 178.83661835 3.56665039 178.05249023 C2.90016983 177.38885971 2.23368927 176.72522919 1.54701233 176.04148865 C-0.27761084 173.63365556 -0.80645666 172.00568668 -1 169 C0.9375 166.1875 0.9375 166.1875 3 164 C2.03892704 161.5973176 1.3252797 160.23284664 -0.80078125 158.7109375 C-3.0115576 157.73040204 -3.0115576 157.73040204 -5.12109375 158.90625 C-5.88550781 159.4321875 -6.64992187 159.958125 -7.4375 160.5 C-21.22534323 169.30331682 -36.60735446 174.34085516 -53 175 C-53.75796875 175.03996094 -54.5159375 175.07992187 -55.296875 175.12109375 C-80.19195773 175.81262383 -104.74443454 166.9022349 -123 150 C-123.83789062 149.25363281 -124.67578125 148.50726563 -125.5390625 147.73828125 C-142.92555007 131.45527044 -153.24126554 108.41238002 -154.37890625 84.7109375 C-155.15635737 56.51592832 -147.8128008 32.1841684 -128.26733398 11.29467773 C-95.04302165 -23.10832418 -38.7371477 -29.32384966 0 0 Z M-103 3 C-103.85207031 3.48339844 -104.70414063 3.96679688 -105.58203125 4.46484375 C-125.87284526 17.07805246 -138.1512473 37.17486768 -144 60 C-148.78401773 81.81512086 -144.17482398 104.95949326 -133 124 C-130.00755182 128.6283038 -126.61052758 132.84295134 -123 137 C-122.35417969 137.74636719 -121.70835938 138.49273437 -121.04296875 139.26171875 C-105.32158634 156.10842116 -82.97915719 164.56651787 -60.38671875 166.1875 C-35.8061106 166.83118205 -14.51256276 157.1046569 3.3671875 140.84765625 C19.55991934 125.3364367 28.56819616 104.27005662 30 82 C30.32433221 66.59604201 27.21974063 51.66883479 20 38 C19.52046875 37.04867187 19.0409375 36.09734375 18.546875 35.1171875 C7.82837506 15.18910265 -11.25123671 0.52046591 -32.64941406 -6.40576172 C-57.09226202 -13.42147459 -81.26686522 -9.32991921 -103 3 Z M14 142 C11.36 144.64 8.72 147.28 6 150 C7.66666667 154.33333333 7.66666667 154.33333333 12 156 C14.64 153.36 17.28 150.72 20 148 C18.33333333 143.66666667 18.33333333 143.66666667 14 142 Z M42.68334961 159.203125 C41.67044564 160.21618822 40.66031084 161.23202462 39.65234375 162.25 C39.12105362 162.78270508 38.58976349 163.31541016 38.04237366 163.86425781 C36.33839927 165.5738501 34.63792595 167.28687894 32.9375 169 C31.78603547 170.15647723 30.63434572 171.31273028 29.48242188 172.46875 C26.65232375 175.30990086 23.82536181 178.15413941 21 181 C26.1816735 187.26299101 31.81909037 193.00260466 37.5625 198.75 C38.50465864 199.70432704 39.44671659 200.6587535 40.38867188 201.61328125 C41.29294922 202.51949219 42.19722656 203.42570312 43.12890625 204.359375 C43.94431885 205.17889648 44.75973145 205.99841797 45.59985352 206.84277344 C50.24730992 211.01985866 54.6573524 213.18723683 61 213 C66.57797704 211.8473553 70.42288247 209.49694775 74 205 C76.69183054 200.3341604 77.60761466 196.60974157 76.66821289 191.35839844 C74.25392244 182.83737331 65.47807442 176.20208011 59.34838867 170.14257812 C57.6683952 168.48110582 55.99680617 166.811503 54.32617188 165.140625 C53.26349596 164.08285579 52.20036205 163.02554645 51.13671875 161.96875 C50.38523811 161.2189386 50.38523811 161.2189386 49.61857605 160.45397949 C46.32797372 156.52176955 46.32797372 156.52176955 42.68334961 159.203125 Z " fill="#FF3265" transform="translate(162,26)"/>
<path d="M0 0 C13.40872985 12.58997429 23.1543592 31.20899984 23.9375 49.80859375 C23.9890625 50.89398438 24.040625 51.979375 24.09375 53.09765625 C24.63676211 74.95389352 17.39030043 95.39729945 2.40991211 111.50415039 C-12.17740563 126.40692288 -32.20099977 134.7828059 -53 135.05859375 C-74.27620089 134.86937852 -93.95356858 127.32748798 -109.4609375 112.53515625 C-125.12788905 96.11543826 -132.49706928 75.32471448 -132.0625 52.80859375 C-130.86804862 32.82286267 -122.91590874 16.08557794 -109.0625 1.80859375 C-108.51078125 1.18339844 -107.9590625 0.55820312 -107.390625 -0.0859375 C-97.2366127 -11.22016385 -81.74668144 -17.78552341 -67.0625 -20.19140625 C-65.763125 -20.41828125 -64.46375 -20.64515625 -63.125 -20.87890625 C-39.49534768 -23.05694377 -17.60699036 -15.90743232 0 0 Z M-105.5546875 10.921875 C-117.54180157 24.72012624 -123.99289979 42.65138308 -123 60.93359375 C-121.51599115 79.54025964 -113.34934948 96.91305951 -99.2421875 109.28125 C-83.65180066 121.47268827 -66.79851161 126.92764595 -47.0625 125.80859375 C-33.48419204 123.93826283 -21.82343024 119.27883092 -11.0625 110.80859375 C-10.30195313 110.22464844 -9.54140625 109.64070313 -8.7578125 109.0390625 C5.08604915 97.66218657 12.44100494 81.30326301 14.9375 63.80859375 C16.69956161 45.09206131 10.80793543 27.18932788 -0.75 12.49609375 C-13.46891161 -1.93276217 -30.61096314 -10.50464612 -49.75 -12.06640625 C-71.1699703 -13.32970725 -90.84391933 -4.43851399 -105.5546875 10.921875 Z " fill="#FF3265" transform="translate(158.0625,47.19140625)"/>
<path d="M0 0 C2.6356936 2.6356936 2.26302455 3.83796949 2.29052734 7.51611328 C2.30328705 8.67136505 2.31604675 9.82661682 2.32919312 11.01687622 C2.33141876 12.27201019 2.33364441 13.52714417 2.3359375 14.8203125 C2.3459227 16.75195755 2.3459227 16.75195755 2.35610962 18.72262573 C2.36809978 21.45476628 2.37178912 24.1867803 2.37060547 26.91894531 C2.37040319 30.40251613 2.39760107 33.88526271 2.43214989 37.36863899 C2.45989976 40.70670743 2.45857241 44.04463042 2.4609375 47.3828125 C2.47530853 48.62580109 2.48967957 49.86878967 2.50448608 51.14944458 C2.46118263 59.41260777 1.66435339 65.23661003 -4.3125 71.375 C-10.44946132 75.0857208 -16.14527864 75.66211828 -23 74 C-26.82485656 72.54971058 -29.57233088 70.43863499 -32.4375 67.5 C-34.74743187 62.32575261 -34.75070518 57.57666708 -34 52 C-31.70370541 47.05413474 -28.68676135 44.69239482 -24 42 C-21.24489615 41.08163205 -19.47683812 40.83683309 -16.625 40.8125 C-15.87476563 40.79832031 -15.12453125 40.78414062 -14.3515625 40.76953125 C-12 41 -12 41 -7 43 C-7 32.11 -7 21.22 -7 10 C-17.02372146 12.9560068 -17.02372146 12.9560068 -27.04394531 15.92382812 C-28.29272461 16.28927734 -29.54150391 16.65472656 -30.828125 17.03125 C-31.47700684 17.22557617 -32.12588867 17.41990234 -32.79443359 17.62011719 C-36.05546248 18.56759522 -38.55956773 19 -42 19 C-41.99111755 19.68602798 -41.98223511 20.37205597 -41.9730835 21.07887268 C-41.88444179 28.23291677 -41.82419544 35.38680429 -41.78027344 42.54125977 C-41.7624476 45.2098681 -41.73291325 47.87761523 -41.69824219 50.54614258 C-41.64960492 54.38634076 -41.62700261 58.22595575 -41.609375 62.06640625 C-41.58872986 63.25520889 -41.56808472 64.44401154 -41.54681396 65.6688385 C-41.54501356 72.34686085 -41.90455697 76.6227665 -46 82 C-51.23319696 86.14294759 -55.19276754 87.3888782 -61.84765625 87.27734375 C-67.18055018 86.59016504 -71.4482083 83.95820681 -74.9375 79.9375 C-78.10690086 75.42350483 -78.55435322 71.399811 -78 66 C-76.18097032 60.84608257 -73.46890396 58.09385659 -69 55 C-63.47877575 52.70817107 -58.75281771 52.84006323 -53 54 C-52.34 54.33 -51.68 54.66 -51 55 C-51.02094727 53.77369873 -51.04189453 52.54739746 -51.06347656 51.28393555 C-51.13582066 46.73864396 -51.18177934 42.19340333 -51.21972656 37.64770508 C-51.23985481 35.6795191 -51.26716019 33.71139301 -51.30175781 31.7434082 C-51.35022311 28.9160282 -51.37295618 26.08943799 -51.390625 23.26171875 C-51.41127014 22.38037766 -51.43191528 21.49903656 -51.45318604 20.59098816 C-51.45348816 19.77036392 -51.45379028 18.94973969 -51.45410156 18.10424805 C-51.46298401 17.38254929 -51.47186646 16.66085052 -51.48101807 15.9172821 C-51 14 -51 14 -49.24273682 12.33460999 C-47.03021231 11.01797877 -45.13330346 10.23894583 -42.66210938 9.54199219 C-41.39059021 9.177117 -41.39059021 9.177117 -40.09338379 8.80487061 C-39.18600464 8.55473206 -38.27862549 8.30459351 -37.34375 8.046875 C-36.40446655 7.78239563 -35.46518311 7.51791626 -34.49743652 7.24542236 C-32.51496345 6.689877 -30.53124297 6.1387665 -28.54638672 5.59179688 C-25.50735928 4.75203356 -22.47437245 3.89261437 -19.44140625 3.03125 C-17.51335342 2.49359755 -15.58497816 1.95709975 -13.65625 1.421875 C-12.74887085 1.16363953 -11.8414917 0.90540405 -10.90661621 0.63934326 C-10.05893677 0.40870178 -9.21125732 0.1780603 -8.33789062 -0.05957031 C-7.59494751 -0.26592102 -6.85200439 -0.47227173 -6.08654785 -0.68487549 C-3.7100904 -1.0437841 -2.24741103 -0.82892427 0 0 Z " fill="#FF3265" transform="translate(138,61)"/>
</svg>
