<?xml version="1.0" encoding="UTF-8"?>
<svg version="1.1" xmlns="http://www.w3.org/2000/svg" width="256" height="256">
<path d="M0 0 C16.47658496 12.25550934 26.99402937 29.72862473 30 50 C31.97622705 69.73730765 27.2927936 88.44111506 15.1875 104.3125 C2.63591969 119.00820824 -13.58534746 128.90169148 -33 131 C-53.20115844 132.41535192 -72.14428504 128.03018971 -87.984375 114.80078125 C-88.64953125 114.20652344 -89.3146875 113.61226563 -90 113 C-90.68578125 112.39542969 -91.3715625 111.79085937 -92.078125 111.16796875 C-104.48342789 99.54391585 -112.50200541 82.60425208 -113.3203125 65.65234375 C-113.89279573 45.79525978 -109.91561512 27.82987289 -96.5625 12.5625 C-95.06620193 11.01752099 -93.54577069 9.4954802 -92 8 C-91.2678125 7.28199219 -90.535625 6.56398438 -89.78125 5.82421875 C-65.53161502 -16.84577451 -27.19680724 -18.38030131 0 0 Z M-12.75854492 15.49707031 C-14.12972725 15.98823334 -14.12972725 15.98823334 -15.52861023 16.48931885 C-16.9897802 17.02827789 -16.9897802 17.02827789 -18.48046875 17.578125 C-19.48966873 17.94597107 -20.49886871 18.31381714 -21.53865051 18.69281006 C-23.66753697 19.47213282 -25.79484256 20.25578581 -27.9206543 21.04345703 C-31.18025179 22.24732302 -34.44796383 23.42694836 -37.71679688 24.60546875 C-39.78439317 25.36572323 -41.85146932 26.12739411 -43.91796875 26.890625 C-44.89815475 27.24183411 -45.87834076 27.59304321 -46.88822937 27.95489502 C-47.79289444 28.29494568 -48.69755951 28.63499634 -49.62963867 28.98535156 C-50.42730148 29.27847229 -51.22496429 29.57159302 -52.04679871 29.87359619 C-54.50270821 31.28990992 -55.08858386 32.3355458 -56 35 C-56.28638738 37.25985816 -56.28638738 37.25985816 -56.22705078 39.67675781 C-56.22689972 40.59741028 -56.22674866 41.51806274 -56.22659302 42.46661377 C-56.21627045 43.45216248 -56.20594788 44.43771118 -56.1953125 45.453125 C-56.19106766 46.97616241 -56.19106766 46.97616241 -56.18673706 48.52996826 C-56.17555001 51.77009916 -56.15044791 55.00995276 -56.125 58.25 C-56.1149683 60.44791267 -56.10584278 62.64582968 -56.09765625 64.84375 C-56.07561551 70.22926114 -56.04215251 75.61461076 -56 81 C-57.485 80.505 -57.485 80.505 -59 80 C-66.18479974 79.29196642 -72.03903141 79.70810262 -78 84 C-81.07316132 86.84267422 -81.88522958 88.29862523 -82.5625 92.4375 C-81.68749819 97.9791781 -78.86144811 100.6379648 -74.4375 103.875 C-68.21505483 105.9114366 -61.78494517 105.9114366 -55.5625 103.875 C-51.90668997 101.20001705 -48.53931567 98.52167838 -47.56307983 93.95709229 C-47.42322304 91.58347794 -47.43711792 89.25935466 -47.51171875 86.8828125 C-47.52233086 85.5970784 -47.52233086 85.5970784 -47.53315735 84.28536987 C-47.56100787 81.56433529 -47.62372544 78.84540593 -47.6875 76.125 C-47.7125951 74.27346735 -47.73540615 72.42190224 -47.75585938 70.5703125 C-47.81080349 66.04607154 -47.89700838 61.52339191 -48 57 C-47.06450317 56.76543091 -47.06450317 56.76543091 -46.11010742 56.52612305 C-38.00619795 54.41324196 -30.17833127 51.6716045 -22.3125 48.8125 C-21.01381225 48.34401174 -19.71498485 47.8759104 -18.41601562 47.40820312 C-15.27597604 46.27592119 -12.13779352 45.13849145 -9 44 C-9 51.59 -9 59.18 -9 67 C-10.485 66.505 -10.485 66.505 -12 66 C-19.70067766 65.36521441 -25.77643539 65.12938422 -32 70 C-34.87842658 72.59986917 -34.99250415 73.94190716 -35.5 77.875 C-35.33381877 81.59330505 -34.26573424 84.00398038 -31.61328125 86.74609375 C-26.33727579 90.8468147 -20.48708164 91.6178173 -14 91 C-8.79414347 89.32353773 -5.54182717 87.16685549 -2 83 C-0.90445406 79.71336217 -0.86646914 77.27665976 -0.85473633 73.81616211 C-0.84835648 72.54151596 -0.84197662 71.26686981 -0.83540344 69.95359802 C-0.83387512 68.56151365 -0.83276097 67.16942877 -0.83203125 65.77734375 C-0.82881839 64.35152655 -0.8254543 62.92570969 -0.82194519 61.49989319 C-0.81595937 58.51318598 -0.81410483 55.5265077 -0.81469727 52.53979492 C-0.81479909 48.7072931 -0.80112332 44.87497569 -0.78392506 41.04251766 C-0.77282603 38.09919883 -0.77077737 35.15592497 -0.77130699 32.21258736 C-0.77012461 30.79915288 -0.76568843 29.38571732 -0.75797462 27.97230339 C-0.74821346 25.99970751 -0.75230695 24.02705762 -0.75708008 22.05444336 C-0.75565506 20.93098007 -0.75423004 19.80751678 -0.75276184 18.65000916 C-0.73012766 15.84429666 -0.73012766 15.84429666 -3 14 C-6.61203411 13.66082052 -9.37447724 14.27068257 -12.75854492 15.49707031 Z " fill="#FF3164" transform="translate(140,39)"/>
<path d="M0 0 C0.75640778 -0.00807175 1.51281555 -0.01614349 2.29214478 -0.02445984 C3.89412174 -0.03825704 5.49612756 -0.04899861 7.09814453 -0.05688477 C8.70760961 -0.06831425 10.31703956 -0.08861984 11.92626953 -0.1184082 C39.73359641 -0.63187133 62.92400181 10.49749968 82.9140625 29.67578125 C103.13257475 50.5754136 109.906007 77.22697644 109.47265625 105.55078125 C109.19196351 113.86208178 107.88578773 121.39330852 105.1640625 129.23828125 C104.91736816 129.95161621 104.67067383 130.66495117 104.41650391 131.39990234 C101.21096937 140.36713431 97.36510314 148.1556668 91.66796875 155.8203125 C89.8119638 158.32979797 89.8119638 158.32979797 90.1640625 162.23828125 C91.4452868 164.0014583 91.4452868 164.0014583 93.1640625 165.48828125 C93.7209375 166.0090625 94.2778125 166.52984375 94.8515625 167.06640625 C95.2846875 167.453125 95.7178125 167.83984375 96.1640625 168.23828125 C98.8546153 167.01820181 98.8546153 167.01820181 101.1640625 165.23828125 C104.91624071 164.79121321 106.62479834 164.8576242 109.75390625 167.06640625 C110.52863281 167.865625 111.30335938 168.66484375 112.1015625 169.48828125 C112.89433594 170.2771875 113.68710938 171.06609375 114.50390625 171.87890625 C116.1640625 174.23828125 116.1640625 174.23828125 115.92982483 176.20245361 C114.62070945 179.68281973 111.77676785 181.98775051 109.16015625 184.53515625 C108.56227798 185.12878967 107.96439972 185.7224231 107.34840393 186.33404541 C105.43972148 188.2259532 103.5208671 190.10715624 101.6015625 191.98828125 C100.30465414 193.27014127 99.00842172 194.55268555 97.71289062 195.8359375 C94.53773293 198.97804197 91.35341304 202.11058664 88.1640625 205.23828125 C83.61080665 203.04030047 80.18392601 200.33902487 77.1640625 196.23828125 C76.5390625 192.48828125 76.5390625 192.48828125 77.1640625 189.23828125 C78.6640625 187.30078125 78.6640625 187.30078125 80.1640625 186.23828125 C78.60905269 182.42143899 76.12810755 180.04632393 73.1640625 177.23828125 C70.04500395 178.68972434 67.19403666 180.46794479 64.29296875 182.31005859 C41.51331445 196.59470148 13.97837451 201.45873991 -12.4609375 195.67578125 C-38.55332267 189.24769223 -61.41147265 172.6678923 -75.35864258 149.67773438 C-82.64685085 137.1513651 -87.88660568 123.08690788 -88.109375 108.5078125 C-88.12199371 107.76413925 -88.13461243 107.020466 -88.14761353 106.2542572 C-88.57173588 75.27052531 -88.57173588 75.27052531 -82.8359375 62.23828125 C-82.54122559 61.54943848 -82.24651367 60.8605957 -81.94287109 60.15087891 C-71.57804856 36.49450548 -52.86612208 15.98852254 -28.53955078 6.32617188 C-19.0407191 2.85112988 -10.18364643 0.10527086 0 0 Z M-48.09375 44.16015625 C-63.57651914 62.62839208 -70.89688761 84.09288497 -68.8359375 108.23828125 C-66.90596025 123.91636807 -60.20138324 138.35878163 -49.8359375 150.23828125 C-48.67964844 151.69041016 -48.67964844 151.69041016 -47.5 153.171875 C-35.24732913 167.85575914 -15.38680278 176.03873794 3.1640625 178.23828125 C25.26847578 179.64862418 45.97627197 173.40991211 62.77880859 158.83789062 C69.87819122 152.42720604 75.52474165 145.65640376 80.1640625 137.23828125 C80.62296875 136.44035156 81.081875 135.64242187 81.5546875 134.8203125 C91.37360818 116.69079932 92.43704679 95.87487475 87.1640625 76.23828125 C80.50247364 55.19049516 67.01798888 38.4533592 47.578125 27.9921875 C43.1771718 25.73128591 38.87565343 23.75272119 34.1640625 22.23828125 C32.79507813 21.79162109 32.79507813 21.79162109 31.3984375 21.3359375 C3.32265067 13.52510962 -28.16830123 22.9953255 -48.09375 44.16015625 Z " fill="#FF3164" transform="translate(87.8359375,-0.23828125)"/>
<path d="M0 0 C2.21182175 0.88523827 3.37105789 1.80014134 5.03787231 3.48968506 C5.87829071 4.33044334 5.87829071 4.33044334 6.73568726 5.18818665 C7.32750793 5.79549118 7.91932861 6.40279572 8.52908325 7.02850342 C9.14491272 7.64857773 9.76074219 8.26865204 10.39523315 8.90751648 C12.3584646 10.88752622 14.31100261 12.87771636 16.26345825 14.86834717 C17.59349573 16.21343251 18.92421704 17.55784205 20.25564575 18.90155029 C23.51623363 22.19519623 26.76727013 25.49801056 30.01345825 28.80584717 C26.30330298 33.23245427 22.49197532 37.44799593 18.39627075 41.52069092 C17.8942514 42.02129532 17.39223206 42.52189972 16.875 43.03767395 C15.29852155 44.60863315 13.71857253 46.17604594 12.13845825 47.74334717 C11.05749552 48.81928443 9.97676442 49.89545447 8.89627075 50.97186279 C6.27133185 53.58588009 3.64327197 56.19673312 1.01345825 58.80584717 C-3.27721721 57.15348066 -6.12949704 53.91532647 -9.28341675 50.70428467 C-9.87705017 50.10782135 -10.47068359 49.51135803 -11.08230591 48.89682007 C-12.97180802 46.99614907 -14.85422566 45.08863242 -16.73654175 43.18084717 C-18.0186324 41.88872249 -19.30117936 40.59705041 -20.584198 39.30584717 C-23.72362607 36.14440238 -26.85671975 32.97680107 -29.98654175 29.80584717 C-28.34157435 25.65459091 -25.32925419 22.80777359 -22.24435425 19.69256592 C-21.67957367 19.11875687 -21.11479309 18.54494781 -20.53289795 17.95375061 C-19.34033152 16.74671093 -18.14496321 15.54243393 -16.94699097 14.34075928 C-15.11258926 12.49440151 -13.29766535 10.63021067 -11.4826355 8.76483154 C-10.3210273 7.59376563 -9.15830418 6.42380436 -7.99435425 5.25506592 C-7.45255524 4.69373459 -6.91075623 4.13240326 -6.35253906 3.55406189 C-2.50789092 -0.24510641 -2.50789092 -0.24510641 0 0 Z " fill="#FF3164" transform="translate(210.98654174804688,181.19415283203125)"/>
<path d="M0 0 C3.01859023 1.45362761 5.30945486 2.93461102 7.75 5.25 C8.36359375 5.81203125 8.9771875 6.3740625 9.609375 6.953125 C11.58356405 9.85895383 11.430902 11.52922313 11 15 C9.37637633 17.22162266 7.90351955 18.93996907 5.9609375 20.8359375 C5.44246246 21.36015289 4.92398743 21.88436829 4.38980103 22.42446899 C3.29246104 23.52588165 2.18754806 24.61979447 1.07568359 25.70654297 C-0.61991917 27.37001545 -2.28112858 29.06307022 -3.94140625 30.76171875 C-5.01370656 31.83005403 -6.08786672 32.89652647 -7.1640625 33.9609375 C-7.90506699 34.72016006 -7.90506699 34.72016006 -8.66104126 35.49472046 C-11.18738438 37.92152989 -12.6965257 38.95852888 -16.20507812 39.43798828 C-19.98687835 38.84534768 -21.31644813 37.2911475 -23.875 34.5 C-24.65617188 33.6646875 -25.43734375 32.829375 -26.2421875 31.96875 C-26.82226562 31.3190625 -27.40234375 30.669375 -28 30 C-26.36221955 25.80374091 -23.26676818 23.01323215 -20.1171875 19.921875 C-19.54292023 19.35043762 -18.96865295 18.77900024 -18.37698364 18.19024658 C-16.5476419 16.37207055 -14.71145807 14.56098508 -12.875 12.75 C-11.63105226 11.51608671 -10.3875573 10.28171678 -9.14453125 9.046875 C-6.10157633 6.02593257 -3.05246746 3.01132908 0 0 Z " fill="#FF3164" transform="translate(245,217)"/>
<path d="M0 0 C0 4.29 0 8.58 0 13 C-5.23134786 14.85537863 -10.46411065 16.70668807 -15.69824219 18.55419922 C-17.47956445 19.18360842 -19.26049107 19.8141385 -21.04101562 20.44580078 C-23.59662973 21.35221848 -26.15362783 22.25462896 -28.7109375 23.15625 C-29.50994476 23.44060913 -30.30895203 23.72496826 -31.13217163 24.01794434 C-36.77225659 26 -36.77225659 26 -39 26 C-39 22.04 -39 18.08 -39 14 C-29.5287555 10.27713329 -20.04056043 6.60450997 -10.5 3.0625 C-9.68168701 2.75626709 -8.86337402 2.45003418 -8.02026367 2.13452148 C-2.23637921 0 -2.23637921 0 0 0 Z " fill="#FF3164" transform="translate(131,62)"/>
<path d="M0 0 C3.0625 1.5 3.0625 1.5 5 3 C4.75 5.375 4.75 5.375 4 8 C-0.09744892 10.65022634 -4.27665227 10.5799128 -9 10 C-12.0625 8.5 -12.0625 8.5 -14 7 C-13.75 4.625 -13.75 4.625 -13 2 C-8.90255108 -0.65022634 -4.72334773 -0.5799128 0 0 Z " fill="#FF3164" transform="translate(126,112)"/>
<path d="M0 0 C1 1 1 1 1.25 3.4375 C1.1675 4.283125 1.085 5.12875 1 6 C-2.46232494 8.30821663 -3.91798316 8.27000989 -8 8.25 C-9.051875 8.25515625 -10.10375 8.2603125 -11.1875 8.265625 C-14 8 -14 8 -17 6 C-17.375 3.5 -17.375 3.5 -17 1 C-11.17065875 -2.8862275 -6.44232778 -1.94334681 0 0 Z " fill="#FF3165" transform="translate(83,128)"/>
</svg>
