<svg xmlns="http://www.w3.org/2000/svg" width="277" height="192" viewBox="0 0 277 192">
  <defs>
    <rect id="rect-1" width="277" height="192" x="0" y="0"/>
  </defs>
  <g>
    <path fill="rgb(255,51,102)" fill-rule="evenodd" d="M50 0h177c27.59575122 0 50 22.40424878 50 50v92c0 27.59575122-22.40424878 50-50 50H50c-27.59575122 0-50-22.40424878-50-50V50C0 22.40424878 22.40424878 0 50 0z"/>
    <g>
      <path fill="rgb(255,255,255)" fill-rule="evenodd" d="M160.80476269 93.59633889l-27.41976375-18.72603167c-1.00627018-.6853001-2.34210482-.78850795-3.44504724-.25595546-1.1117308.52842417-1.80601328 1.60178578-1.80601328 2.76184197v37.4396784c0 1.17244114.69428248 2.24167443 1.80601328 2.7700986.47017864.22292895.98429921.33439343 1.50281398.33439343.6767057 0 1.3621998-.20228738 1.94223326-.60273383l27.41976375-18.70951841c.865656-.59860551 1.37098818-1.52334782 1.37098818-2.50588652.0043942-.99905195-.51412057-1.91966594-1.37098818-2.50588651z"/>
      <path fill="rgb(255,255,255)" fill-rule="evenodd" d="M73 96.00981717C73 61.75708899 102.5431482 34 138.99990436 34c36.44796784 0 65.99990436 27.757089 65.99551439 62.00981717 0 34.23622203-29.54754655 61.98918645-65.9955144 61.98918645C102.54314822 157.99900362 73 130.25016377 73 96.00981717zm11.02487416 0c0 28.52880426 24.61489985 51.6432043 54.9750302 51.6432043 30.35574038 0 54.97063919-23.11440004 54.96624922-51.6432043 0-28.52055513-24.61050884-51.65971636-54.96624922-51.65971636-30.36013035 0-54.9750302 23.14328973-54.9750302 51.65971636z"/>
    </g>
  </g>
</svg>
