<svg xmlns="http://www.w3.org/2000/svg" width="236" height="236.001" viewBox="0 0 236 236.001">
  <g>
    <path fill="rgb(255,51,102)" fill-rule="evenodd" d="M51.62500222 59.00013477c5.19476585 0 10.1821098.89422079 14.81453188 2.53977142-.04609375-.83890816-.06453125-1.6870351-.06453125-2.53977142 0-28.51365888 23.11140724-51.62511792 51.62500222-51.62511792 28.51359497 0 51.62500221 23.11145904 51.62500221 51.62511792 0 .85273632-.0184375 1.70086326-.06453125 2.53977142 4.63242208-1.64555063 9.61976604-2.53977142 14.81453189-2.53977142 24.4389073 0 44.2500019 19.811139 44.2500019 44.25010107s-19.8110946 44.25010107-44.2500019 44.25010107H51.62500222c-24.4389073 0-44.2500019-19.811139-44.2500019-44.25010107s19.8110946-44.25010107 44.2500019-44.25010107z"/>
    <path fill="rgb(255,51,102)" fill-rule="evenodd" d="M0 103.25023584c0 28.46617692 23.15887908 51.62511792 51.62499165 51.62511792H184.3749702c28.4661073 0 51.62497758-23.158941 51.62497758-51.62511792 0-28.46618395-23.15887029-51.62511792-51.62497758-51.62511792-2.61489993 0-5.20767295.19405403-7.7640273.57986219C173.23134935 22.86024809 148.23563611 0 117.99998092 0 87.76433277 0 62.76861249 22.8602481 59.38901895 52.20498011c-2.55635787-.38580816-5.14913089-.57986219-7.7640273-.57986219C23.15887908 51.62511792 0 74.78405189 0 103.25023584zm14.74999761 0c0-20.33292122 16.54212256-36.87508423 36.87499404-36.87508423 4.24246916 0 8.39643772.71122785 12.34481803 2.11432773 2.32404993.82553408 4.9089878.4346619 6.88549193-1.04356837 1.97649709-1.47776608 3.0822799-3.84560438 2.94722557-6.30932151-.03549027-.65591747-.0530033-1.3547033-.0530033-2.1364547 0-24.39978116 19.85027135-44.25010107 44.24999284-44.25010107 24.39972149 0 44.24999284 19.8503199 44.24999284 44.25010108 0 .78175139-.01751303 1.48053722-.0530033 2.13645469-.13505433 2.46371713.97119268 4.83155543 2.94723964 6.3093215 1.97649709 1.47823029 4.56050656 1.86956667 6.88547786 1.04356838 3.9493087-1.40309988 8.10327375-2.11432773 12.34574643-2.11432773 20.33287148 0 36.87499403 16.54216301 36.87499403 36.87508423s-16.54212255 36.87508423-36.87499403 36.87508423H51.62499165c-20.33287148 0-36.87499404-16.54216301-36.87499404-36.87508423z"/>
    <path fill="rgb(255,51,102)" fill-rule="evenodd" d="M99.55559021 195.43840735c-1.40585943 0-2.8269298-.40101654-4.08390642-1.23900283-3.38927359-2.25952079-4.30515644-6.83848437-2.04564072-10.22730461l7.37500032-11.06252527c2.25951572-3.38928118 6.83892998-4.30470515 10.2272817-2.0456453 3.38927357 2.25952079 4.30515643 6.83848437 2.0456407 10.22730461l-7.37500031 11.06252527c-1.42153131 2.1318408-3.76032829 3.28464813-6.14337527 3.28464813z"/>
    <path fill="rgb(255,51,102)" fill-rule="evenodd" d="M36.86808752 195.43840735c-1.40585943 0-2.8269298-.40101654-4.08390642-1.23900283-3.38927359-2.25952079-4.30515644-6.83848437-2.04564072-10.22730461l7.37500032-11.06252527c2.25905478-3.38928118 6.83892998-4.30470515 10.22728169-2.0456453 3.38927358 2.25952079 4.30515643 6.83848437 2.04564071 10.22730461l-7.37500032 11.06252527c-1.4215313 2.1318408-3.76032828 3.28464813-6.14337526 3.28464813z"/>
    <path fill="rgb(255,51,102)" fill-rule="evenodd" d="M169.61809322 195.43840735c-1.40585943 0-2.8269298-.40101654-4.08390642-1.23900283-3.38927359-2.25952079-4.30515644-6.83848437-2.04564072-10.22730461l7.37500032-11.06252527c2.25951572-3.38928118 6.83846904-4.30470515 10.22728169-2.0456453 3.38927358 2.25952079 4.30515643 6.83848437 2.04564071 10.22730461l-7.37500031 11.06252527c-1.42153132 2.1318408-3.7603283 3.28464813-6.14337527 3.28464813z"/>
    <path fill="rgb(255,51,102)" fill-rule="evenodd" d="M99.55559021 236.001c-1.40585943 0-2.8269298-.40101654-4.08390642-1.23900283-3.38927359-2.25952079-4.30515644-6.83848437-2.04564072-10.22730461l7.37500032-11.06252527c2.25951572-3.38928118 6.83892998-4.30470514 10.2272817-2.0456453 3.38927357 2.25952079 4.30515643 6.83848437 2.0456407 10.22730461l-7.37500031 11.06252527c-1.42153131 2.1318408-3.76032829 3.28464813-6.14337527 3.28464813z"/>
    <path fill="rgb(255,51,102)" fill-rule="evenodd" d="M132.74309164 210.18844104c-1.40585944 0-2.82692981-.40101654-4.08390643-1.23900283-3.38927358-2.25952079-4.30515643-6.83848437-2.04564071-10.22730461l7.37500032-11.06252527c2.25905478-3.38928118 6.83892998-4.3042442 10.22728169-2.0456453 3.38927358 2.25952079 4.30515643 6.83848437 2.0456407 10.22730461l-7.3750003 11.06252527c-1.42153132 2.1318408-3.7603283 3.28464813-6.14337527 3.28464813z"/>
    <path fill="rgb(255,51,102)" fill-rule="evenodd" d="M165.93059306 236.001c-1.40585943 0-2.8269298-.40101654-4.08390642-1.23900283-3.38927358-2.25952079-4.30515644-6.83848437-2.04564071-10.22730461l7.37500031-11.06252527c2.25905479-3.38928118 6.83846905-4.30470514 10.2272817-2.0456453 3.38927357 2.25952079 4.30515643 6.83848437 2.0456407 10.22730461l-7.37500031 11.06252527c-1.42153131 2.1318408-3.76032829 3.28464813-6.14337527 3.28464813z"/>
    <path fill="rgb(255,51,102)" fill-rule="evenodd" d="M66.36808879 210.18844104c-1.40585944 0-2.82692981-.40101654-4.08390643-1.23900283-3.38927358-2.25952079-4.30515643-6.83848437-2.04564071-10.22730461l7.37500032-11.06252527c2.25905478-3.38928118 6.83846904-4.3042442 10.22728169-2.0456453 3.38927358 2.25952079 4.30515643 6.83848437 2.0456407 10.22730461l-7.3750003 11.06252527c-1.42153132 2.1318408-3.7603283 3.28464813-6.14337527 3.28464813z"/>
    <path fill="rgb(255,51,102)" fill-rule="evenodd" d="M33.18058736 236.001c-1.40585943 0-2.8269298-.40101654-4.08390642-1.23900283-3.38927359-2.25952079-4.30515644-6.83848437-2.04564072-10.22730461l7.37500032-11.06252527c2.25905479-3.38928118 6.83892998-4.30470514 10.22728169-2.0456453 3.38927358 2.25952079 4.30515644 6.83848437 2.04564071 10.22730461l-7.37500031 11.06252527C37.90243132 234.84819267 35.56363434 236.001 33.18058736 236.001z"/>
  </g>
</svg>
