<svg xmlns="http://www.w3.org/2000/svg" xmlns:xlink="http://www.w3.org/1999/xlink" width="53" height="53" viewBox="0 0 53 53">
  <defs>
    <rect id="rect-1" width="53" height="53" x="0" y="0"/>
    <rect id="rect-2" width="53" height="53" x="0" y="0"/>
    <mask id="mask-3" maskContentUnits="userSpaceOnUse" maskUnits="userSpaceOnUse">
      <rect width="53" height="53" x="0" y="0" fill="black"/>
      <use fill="white" xlink:href="#rect-2"/>
    </mask>
  </defs>
  <g>
    <use fill="none" xlink:href="#rect-2"/>
    <g mask="url(#mask-3)">
      <path fill="rgb(255,255,255)" fill-rule="evenodd" d="M3.82519531 1H49.1748047C51.28741455 1 53 3.21807861 53 5.95404053v9.04821777H0V5.95404053C0 3.2180786 1.71264648 1 3.82519531 1zM4.9729004 9.58454895c0 .91723633.74365234 1.66087341 1.66088867 1.66087341.91729737 0 1.66094971-.74363708 1.66094971-1.66087341s-.74365234-1.66088867-1.6609497-1.66088867c-.9173584 0-1.66088868.74365234-1.66088868 1.66088867zm8.4142456 1.66087341c-.91723632 0-1.66088867-.74363708-1.66088867-1.66087341s.74353028-1.66088867 1.66088868-1.66088867c.91729736 0 1.6609497.74365234 1.6609497 1.66088867s-.74365234 1.66087341-1.6609497 1.66087341zm5.39855958-1.66087341c0 .91723633.74365234 1.66087341 1.66088867 1.66087341.9173584 0 1.6609497-.74363708 1.6609497-1.66087341s-.74365234-1.66088867-1.6609497-1.66088867c-.91723633 0-1.66088867.74365234-1.66088867 1.66088867z"/>
      <path fill="rgb(255,255,255)" fill-rule="evenodd" d="M0 48.649292V18.30218505h53v30.34710693C53 51.05218506 51.28741455 53 49.17480469 53H3.8251953C1.71264648 53 0 51.05218506 0 48.649292zm32.62469482-18.02882386l-2.159729 6.28309631c-.225708.65649414-.8380127 1.10139466-1.53198242 1.11340332l-.02862549.00019837c-.68261719 0-1.29614258-.42088318-1.54077148-1.06018067l-.78039551-2.03923034-.68255615 1.98580932c-.22564698.65649414-.83795166 1.10139466-1.5319214 1.11340332l-.02868651.00019837c-.68255616 0-1.29614258-.42088318-1.54071045-1.06018067l-2.40466309-6.28311157c-.3256836-.85098266.1001587-1.80496216.95117188-2.1306305.85101318-.32617187 1.80499267.10009766 2.13067626.9512024l.78039551 2.03923035.68255616-1.98582459c.37817382-1.2782898 2.48937988-1.5859375 3.10137939-.05340576l.7803955 2.03923035.68255616-1.98582459c.29626465-.86164856 1.23486328-1.31980896 2.09674072-1.0240631.86193848.29626464 1.32043457 1.23503112 1.02416992 2.09667968zm12.99743653 6.28309631l2.15979004-6.28309631c.29614257-.86164856-.16235352-1.80041504-1.02410889-2.09667969-.8616333-.29573059-1.80041504.16241455-2.09667969 1.02406311l-.68261718 1.98582459-.78039551-2.03923035c-.68908692-1.63066101-2.72711182-1.17582703-3.10131836.05340576l-.68261719 1.98591614-.78045654-2.0393219c-.3256836-.85108948-1.27960205-1.27737427-2.13079834-.95118713-.85101319.32565307-1.27685547 1.27963257-.95117188 2.13063049l2.40472412 6.28309631c.24475098.63929749.8581543 1.06019593 1.54077149 1.06019593l.02862549-.00021363c.69396972-.01200866 1.30627441-.45690918 1.53198242-1.11340332l.68255615-1.98580932.7803955 2.03923034c.24462891.63929749.8581543 1.06019593 1.54071046 1.06019593l.02868652-.00021363c.69396973-.01200866 1.30627441-.45690918 1.53192139-1.11340332zm-30.31420899 0l2.159729-6.28309631c.29626466-.86164856-.16223144-1.80041504-1.02416991-2.09667969-.86181641-.29573059-1.80047608.16241455-2.09674073 1.02406311l-.68255615 1.98582459-.7803955-2.03923035c-.70825196-1.65260315-2.76391602-1.14289856-3.1013794.05340576l-.68255615 1.98582459L8.319458 29.4944458c-.3256836-.85108948-1.27978516-1.277359-2.13067627-.95118713-.85101319.32565307-1.27685547 1.27963257-.95117188 2.13063049l2.40466309 6.28309631c.24456787.63929749.8581543 1.06019593 1.54071045 1.06019593l.02868652-.00021363c.69396973-.01200866 1.30627442-.45690918 1.53192139-1.11340332l.68255615-1.98580932.7803955 2.03923034c.24475099.63929749.8581543 1.06019593 1.5407715 1.06019593l.02862548-.00021363c.69396973-.01200866 1.30627442-.45690918 1.53198242-1.11340332z"/>
    </g>
  </g>
</svg>
